<?xml version="1.0" encoding="utf-8"?>
<!-- Generator: Adobe Illustrator 23.0.3, SVG Export Plug-In . SVG Version: 6.00 Build 0)  -->
<svg version="1.1" id="Layer_1" xmlns="http://www.w3.org/2000/svg" xmlns:xlink="http://www.w3.org/1999/xlink" x="0px" y="0px"
	 viewBox="0 0 90 90" style="enable-background:new 0 0 90 90;" xml:space="preserve">
<style type="text/css">
	.st0{fill:#E30613;}
</style>
<g>
	<g>
		<path class="st0" d="M15.7,90L14,88.9l9.5-13.8l0.7-12.7c0-0.3,0.2-0.6,0.5-0.8l14.9-9.4l1.1,1.7L26.3,63l-0.7,12.5
			c0,0.2-0.1,0.4-0.2,0.5L15.7,90z"/>
	</g>
	<g>
		<path class="st0" d="M0.5,58.7l-0.5-2l15.2-3.5l11.7-9.6c0.2-0.1,0.4-0.2,0.6-0.2l0,0H39v2H27.8L16.3,55c-0.1,0.1-0.3,0.2-0.4,0.2
			L0.5,58.7z"/>
	</g>
	<g>
		<path class="st0" d="M39.4,38.5L27,23.8L9.5,17.3l0.7-1.9L27.9,22c0.2,0.1,0.3,0.2,0.4,0.3L41,37.2L39.4,38.5z"/>
	</g>
	<g>
		<path class="st0" d="M39.7,16.3c-0.2-0.1-5.3-2.8-6.6-7.4c-0.1-0.4,0-0.8,0.3-1c0,0,4.9-4.4,5.8-7.8l2,0.5C40.3,4,36.7,7.7,35.3,9
			c1.3,3.4,5.3,5.6,5.4,5.6L39.7,16.3z"/>
	</g>
	<g>
		<path class="st0" d="M49.4,37c-1.8-3.3-2.9-11.4-2.9-11.4H45l0,0h-1.5c0,0-1.1,8.1-2.9,11.4c-1.8,3.3-1.5,9.6-1.5,9.6
			s-0.1,10,5.9,10l0,0l0,0l0,0l0,0c6,0,5.9-10,5.9-10S51.2,40.3,49.4,37z"/>
	</g>
	<g>
		<path class="st0" d="M53.8,71.7c0-6-2.8-9.2-4.7-9.9c-1.9-0.7-4.1-5.1-4.1-5.1l0,0l0,0l0,0l0,0c0,0-2.2,4.4-4.1,5.1
			c-1.9,0.7-4.7,3.9-4.7,9.9s1.5,13.6,8.8,13.6l0,0l0,0l0,0l0,0C52.3,85.3,53.8,77.7,53.8,71.7z"/>
	</g>
	<g>
		<path class="st0" d="M45,10.6L45,10.6L45,10.6L45,10.6L45,10.6c0,0-5.9,3.1-5.9,9.2s4.4,5.8,4.4,5.8H45l0,0h1.5
			c0,0,4.4,0.4,4.4-5.8C50.9,13.7,45,10.6,45,10.6z"/>
	</g>
	<g>
		<path class="st0" d="M45,57.7c-1.6,0-2.9-0.6-4-1.6c-3-3-3-9.1-3-9.4c0-0.2-0.2-6.6,1.7-10.1c1.7-3.1,2.7-11,2.8-11.1
			c0.1-0.5,0.5-0.9,1-0.9l0,0H45h1.5l0,0c0.5,0,0.9,0.4,1,0.9c0,0.1,1.1,8,2.8,11.1l0,0C52.2,40,52,46.4,52,46.7c0,0.2,0,6.3-3,9.3
			C47.9,57.1,46.6,57.7,45,57.7z M44.3,26.6c-0.3,2.2-1.4,8.1-2.8,10.9c-1.6,3-1.4,9.1-1.4,9.1c0,0.1,0,5.6,2.4,8
			c0.7,0.7,1.5,1,2.5,1s1.8-0.3,2.5-1c2-2,2.4-6.4,2.4-7.9c0-0.1,0.2-6.2-1.4-9.2l0,0c-1.5-2.8-2.5-8.6-2.8-10.9
			C45.7,26.6,44.3,26.6,44.3,26.6z"/>
	</g>
	<g>
		<path class="st0" d="M45,86.3c-6.3,0-9.8-5.2-9.8-14.6c0-6.1,2.8-9.9,5.4-10.9c1.1-0.4,2.8-3,3.6-4.6c0.1-0.3,0.4-0.5,0.8-0.6
			c0.5-0.1,0.9,0.2,1.1,0.6c1,2,2.6,4.2,3.6,4.6c2.6,1,5.4,4.8,5.4,10.9l0,0l0,0C54.8,81.2,51.3,86.3,45,86.3z M45,58.8
			c-0.9,1.5-2.3,3.4-3.7,4c-1.6,0.6-4,3.5-4,9c0,5.7,1.4,12.6,7.8,12.6s7.8-6.8,7.8-12.6l0,0c0-5.5-2.4-8.4-4-9
			C47.3,62.2,45.9,60.3,45,58.8z"/>
	</g>
	<g>
		<path class="st0" d="M74.3,90l-9.7-14c-0.1-0.2-0.2-0.3-0.2-0.5L63.7,63l-14.4-9.2l1.1-1.7l14.9,9.4c0.3,0.2,0.5,0.5,0.5,0.8
			L66.5,75L76,88.8L74.3,90z"/>
	</g>
	<g>
		<path class="st0" d="M89.5,58.7l-15.4-3.5c-0.2,0-0.3-0.1-0.4-0.2l-11.6-9.6H50.9v-2h11.5c0.2,0,0.5,0.1,0.6,0.2l11.7,9.6L90,56.7
			L89.5,58.7z"/>
	</g>
	<g>
		<path class="st0" d="M50.6,38.5L49,37.2l12.7-14.9c0.1-0.1,0.3-0.2,0.4-0.3l17.8-6.6l0.7,1.9L63,23.8L50.6,38.5z"/>
	</g>
	<g>
		<path class="st0" d="M46.7,26.6C46.6,26.6,46.6,26.6,46.7,26.6h-1.6h-1.5c-0.3,0-2,0-3.5-1.3c-1.3-1.2-1.9-3-1.9-5.5
			c0-6.9,6.5-10.1,6.6-10.2c0.2-0.1,0.4-0.1,0.6,0c0.6,0.2,6.7,3.7,6.7,10.2c0,2.5-0.7,4.3-1.9,5.5C48.7,26.5,47.2,26.6,46.7,26.6z
			 M45,11.8c-1.3,0.8-4.9,3.6-4.9,8c0,1.9,0.4,3.2,1.3,4c0.9,0.8,2,0.8,2,0.8h0.1l0,0H45h1.5h0.1c0,0,1.1,0.1,2-0.8
			c0.8-0.8,1.3-2.1,1.3-4C49.9,15.4,46.3,12.6,45,11.8z"/>
	</g>
	<g>
		<path class="st0" d="M50.3,16.3l-0.9-1.8l0.5,0.9l-0.5-0.9c0,0,4.1-2.2,5.4-5.6c-1.4-1.3-5-5-5.9-8.4l2-0.5
			c0.9,3.5,5.7,7.8,5.8,7.8c0.3,0.3,0.4,0.7,0.3,1C55.6,13.5,50.5,16.2,50.3,16.3z"/>
	</g>
</g>
</svg>
