<svg fill="#FFFFFF" xmlns="http://www.w3.org/2000/svg" xmlns:xlink="http://www.w3.org/1999/xlink" version="1.1" preserveAspectRatio="none" x="0px" y="0px" viewBox="0 0 100 100"><defs><g id="a"><path fill="#FFFFFF" stroke="none" d=" M 82.45 62.45 Q 83.5 61.45 83.5 60 83.5 58.55 82.45 57.5 81.45 56.5 80 56.5 78.55 56.5 77.5 57.5 L 53.5 81.55 53.5 10 Q 53.5 8.55 52.45 7.5 51.45 6.5 50 6.5 48.55 6.5 47.5 7.5 46.5 8.55 46.5 10 L 46.5 81.55 22.45 57.5 Q 21.45 56.5 20 56.5 18.55 56.5 17.5 57.5 16.5 58.55 16.5 60 16.5 61.45 17.5 62.45 L 47.5 92.45 Q 48.55 93.5 50 93.5 51.45 93.5 52.45 92.45 L 82.45 62.45 Z"></path></g></defs><g transform="matrix( 1, 0, 0, 1, 0,0) "><use xlink:href="#a"></use></g></svg>