<?xml version="1.0" encoding="utf-8"?>
<!-- Generator: Adobe Illustrator 23.0.3, SVG Export Plug-In . SVG Version: 6.00 Build 0)  -->
<svg version="1.1" id="Layer_1" xmlns="http://www.w3.org/2000/svg" xmlns:xlink="http://www.w3.org/1999/xlink" x="0px" y="0px"
	 viewBox="0 0 80 74" style="enable-background:new 0 0 80 74;" xml:space="preserve">
<style type="text/css">
	.st0{fill:#FFFFFF;}
</style>
<g>
	<path class="st0" d="M60,42h8c0.6,0,1-0.4,1-1v-8c0-0.6-0.4-1-1-1h-8c-0.6,0-1,0.4-1,1v8C59,41.6,59.4,42,60,42z M61,34h6v6h-6V34z
		"/>
	<path class="st0" d="M60,55h8c0.6,0,1-0.4,1-1v-8c0-0.6-0.4-1-1-1h-8c-0.6,0-1,0.4-1,1v8C59,54.6,59.4,55,60,55z M61,47h6v6h-6V47z
		"/>
	<path class="st0" d="M79,64h-4V27c0-0.6-0.4-1-1-1h-4V16c0-0.6-0.4-1-1-1H44c-0.6,0-1,0.4-1,1v10h-3V12c0-0.6-0.4-1-1-1h-3V1
		c0-0.6-0.4-1-1-1H10C9.4,0,9,0.4,9,1v10H6c-0.6,0-1,0.4-1,1v52H1c-0.6,0-1,0.4-1,1v8c0,0.6,0.4,1,1,1h78c0.6,0,1-0.4,1-1v-8
		C80,64.4,79.6,64,79,64z M45,17h23v9H45V17z M40,28h4h25h4v36h-4v-5c0-0.6-0.4-1-1-1h-8c-0.6,0-1,0.4-1,1v5h-5v-5c0-0.6-0.4-1-1-1
		h-8c-0.6,0-1,0.4-1,1v5h-4V28z M67,60v4h-6v-4H67z M52,60v4h-6v-4H52z M11,2h23v9H11V2z M7,13h3h25h3v14v37h-4v-5c0-0.6-0.4-1-1-1
		H13c-0.6,0-1,0.4-1,1v5H7V13z M32,60v4H14v-4H32z M78,72H2v-6h4h7h20h6h6h8h7h8h6h4V72z"/>
	<path class="st0" d="M45,42h8c0.6,0,1-0.4,1-1v-8c0-0.6-0.4-1-1-1h-8c-0.6,0-1,0.4-1,1v8C44,41.6,44.4,42,45,42z M46,34h6v6h-6V34z
		"/>
	<path class="st0" d="M45,55h8c0.6,0,1-0.4,1-1v-8c0-0.6-0.4-1-1-1h-8c-0.6,0-1,0.4-1,1v8C44,54.6,44.4,55,45,55z M46,47h6v6h-6V47z
		"/>
	<path class="st0" d="M11,30h8c0.6,0,1-0.4,1-1v-8c0-0.6-0.4-1-1-1h-8c-0.6,0-1,0.4-1,1v8C10,29.6,10.4,30,11,30z M12,22h6v6h-6V22z
		"/>
	<path class="st0" d="M26,30h8c0.6,0,1-0.4,1-1v-8c0-0.6-0.4-1-1-1h-8c-0.6,0-1,0.4-1,1v8C25,29.6,25.4,30,26,30z M27,22h6v6h-6V22z
		"/>
	<path class="st0" d="M11,42h8c0.6,0,1-0.4,1-1v-8c0-0.6-0.4-1-1-1h-8c-0.6,0-1,0.4-1,1v8C10,41.6,10.4,42,11,42z M12,34h6v6h-6V34z
		"/>
	<path class="st0" d="M26,42h8c0.6,0,1-0.4,1-1v-8c0-0.6-0.4-1-1-1h-8c-0.6,0-1,0.4-1,1v8C25,41.6,25.4,42,26,42z M27,34h6v6h-6V34z
		"/>
	<path class="st0" d="M20,54v-8c0-0.6-0.4-1-1-1h-8c-0.6,0-1,0.4-1,1v8c0,0.6,0.4,1,1,1h8C19.6,55,20,54.6,20,54z M18,53h-6v-6h6V53
		z"/>
	<path class="st0" d="M26,55h8c0.6,0,1-0.4,1-1v-8c0-0.6-0.4-1-1-1h-8c-0.6,0-1,0.4-1,1v8C25,54.6,25.4,55,26,55z M27,47h6v6h-6V47z
		"/>
</g>
</svg>
