<?xml version="1.0" encoding="utf-8"?>
<!-- Generator: Adobe Illustrator 23.0.3, SVG Export Plug-In . SVG Version: 6.00 Build 0)  -->
<svg version="1.1" id="Layer_1" xmlns="http://www.w3.org/2000/svg" xmlns:xlink="http://www.w3.org/1999/xlink" x="0px" y="0px"
	 viewBox="0 0 77 88.4" style="enable-background:new 0 0 77 88.4;" xml:space="preserve">
<style type="text/css">
	.st0{fill:#FFFFFF;}
</style>
<g>
	<path class="st0" d="M4,79h12.2h3.7h53.2c0.6,0,1-0.4,1-1V36.1c0-0.4-0.2-0.7-0.5-0.9s-0.7-0.2-1,0l-16.1,9h-2.7V36
		c0-0.4-0.2-0.7-0.5-0.9s-0.7-0.2-1,0l-16.1,9h-2.7v-8.2c0-0.4-0.2-0.7-0.5-0.9s-0.7-0.2-1,0l-12.2,6.8l-0.8-29c0-0.5-0.5-1-1-1H5.9
		c-0.5,0-1,0.4-1,1L3,77.6c0,0.3,0.1,0.5,0.3,0.7C3.5,78.9,3.7,79,4,79z M22.6,58.7v-6.6h7.2v6.6H22.6z M54.9,52.1v6.6h-7.2v-6.6
		H54.9z M35.2,52.1h7.2v6.6h-7.2V52.1z M60.2,52.1h7.2v6.6h-7.2V52.1z"/>
	<path class="st0" d="M8.1,8.8c0.1,0,0.1,0,0.2,0c0.5-0.1,0.9-0.6,0.8-1.2C9,7.3,8.9,6.3,9.4,5.6c0.1-0.2,0.3-0.4,0.8-0.5
		c3.1-0.5,4.3-2.9,4.1-4.3c-0.1-0.5-0.6-0.9-1.1-0.8s-0.9,0.6-0.8,1.1C12.5,1.5,12,2.8,10,3.2C9.1,3.4,8.3,3.8,7.8,4.5
		C6.8,5.9,7.2,7.8,7.2,8C7.2,8.5,7.6,8.8,8.1,8.8z"/>
	<path class="st0" d="M14.3,8c0.1,0.5,0.5,0.8,1,0.8c0.1,0,0.1,0,0.2,0c0.5-0.1,0.9-0.6,0.8-1.2c-0.1-0.3-0.2-1.3,0.3-2
		c0.1-0.2,0.3-0.4,0.8-0.5c3.1-0.5,4.3-2.9,4.1-4.3c-0.1-0.5-0.6-0.9-1.1-0.8c-0.5,0.1-0.9,0.6-0.8,1.1C19.5,1.5,19,2.8,17,3.2
		c-0.9,0.2-1.7,0.6-2.2,1.3C13.9,5.9,14.2,7.8,14.3,8z"/>
	<path class="st0" d="M76,81.7H1c-0.6,0-1,0.4-1,1v4.7c0,0.6,0.4,1,1,1h75c0.6,0,1-0.4,1-1v-4.7C77,82.2,76.6,81.7,76,81.7z"/>
</g>
</svg>
