<?xml version="1.0" encoding="utf-8"?>
<!-- Generator: Adobe Illustrator 23.0.3, SVG Export Plug-In . SVG Version: 6.00 Build 0)  -->
<svg version="1.1" id="Ebene_1" xmlns="http://www.w3.org/2000/svg" xmlns:xlink="http://www.w3.org/1999/xlink" x="0px" y="0px"
	 viewBox="0 0 171.9 54.8" style="enable-background:new 0 0 171.9 54.8;" xml:space="preserve">
<style type="text/css">
	.st0{enable-background:new    ;}
	.st1{fill:#E2001A;}
	.st2{fill:#333333;}
</style>
<title>logo</title>
<g class="st0">
	<path class="st1" d="M2.3,2.7h9.9v27.1H2.3V2.7z"/>
	<path class="st1" d="M16.6,2.7h9.5l8.9,15h0.3c-0.4-2.3-0.8-4.6-0.8-6.9V2.7h9.4v27.1h-9.4l-8.7-14.3h-0.3c0.3,1.9,0.6,3.6,0.6,5.4
		v8.8h-9.4V2.7z"/>
</g>
<g class="st0">
	<path class="st1" d="M48.1,2.7H60c6.1,0,11.3,2.6,11.3,9.4c0,4.1-1.6,5.8-5.3,7.1v0.2c0.5,0.4,1.1,0.8,1.7,1.6l5.9,8.8H62.3
		L58,21.2h-0.2v8.7h-9.6V2.7z M57.8,14.8h0.7c1.6,0,3.2-0.3,3.2-2.3c0-2.1-1.5-2.3-3.2-2.3h-0.8V14.8z"/>
</g>
<g class="st0">
	<path class="st1" d="M104.1,16.4c0,8.7-6.7,13.9-15,13.9s-15-5.2-15-13.9c0-8.5,6.8-14.1,15-14.1C97.3,2.3,104.1,7.9,104.1,16.4z
		 M84,16.5c0,3.1,2.1,5.2,5.1,5.2s5.1-2.1,5.1-5.2c0-2.9-1.9-5.3-5.1-5.3C85.9,11.2,84,13.6,84,16.5z"/>
</g>
<g class="st0">
	<path class="st2" d="M119.2,29.9h-10.4l9.4-27.1h10.9l9.7,27.1h-10.4l-0.9-3.4H120L119.2,29.9z M125.7,20.1l-1.2-4.8
		c-0.3-1.2-0.5-2.3-0.6-3.5h-0.4l-1.8,8.3H125.7z"/>
	<path class="st2" d="M167.7,13.9c-0.1,4.4-0.1,8.1-3.3,11.6c-2.9,3.1-7.3,4.8-11.5,4.8c-8.3,0-15-5.1-15-13.8
		c0-8.9,6.5-14.2,15-14.2c4.7,0,11.2,2.3,13.3,7l-9.2,3.4c-0.8-1.4-2.2-2.1-3.7-2.1c-3.5,0-5.5,3-5.5,6.3c0,3,1.9,5.8,5.1,5.8
		c1.5,0,3.5-0.7,4-2.4h-4.5v-6.4H167.7z"/>
</g>
<g class="st0">
	<path class="st2" d="M6.1,43h1l-3.3,3.2l3.4,3.7H6.1l-2.8-3.2l-0.2,0.2v3H2.3V43h0.8v3L6.1,43z"/>
</g>
<g class="st0">
	<path class="st2" d="M8,42.7l5.4,5.7V43h0.8v7.2l-5.4-5.7v5.3H8V42.7z"/>
</g>
<g class="st0">
	<path class="st2" d="M22.6,46.5c0,2-1.6,3.6-3.6,3.6s-3.6-1.6-3.6-3.6c0-2,1.6-3.6,3.6-3.6S22.6,44.5,22.6,46.5z M16.1,46.4
		c0,1.6,1.3,2.9,2.8,2.9s2.8-1.3,2.8-2.9c0-1.6-1.3-2.9-2.8-2.9S16.1,44.9,16.1,46.4z"/>
</g>
<g class="st0">
	<path class="st2" d="M25.4,48.2l2.2-5.6l2.2,5.6l1.8-5.2h0.8l-2.7,7.3l-2.2-5.6l-2.2,5.6L22.8,43h0.8L25.4,48.2z"/>
</g>
<g class="st0">
	<path class="st2" d="M34.4,47.4V48h-1.9v-0.7H34.4z"/>
</g>
<g class="st0">
	<path class="st2" d="M39.8,45.8V43h0.8v6.9h-0.8v-3.4h-3.6v3.4h-0.8V43h0.8v2.8H39.8z"/>
</g>
<g class="st0">
	<path class="st2" d="M49,46.5c0,2-1.6,3.6-3.6,3.6c-2,0-3.6-1.6-3.6-3.6c0-2,1.6-3.6,3.6-3.6C47.3,42.9,49,44.5,49,46.5z
		 M42.5,46.4c0,1.6,1.3,2.9,2.8,2.9c1.6,0,2.8-1.3,2.8-2.9c0-1.6-1.3-2.9-2.8-2.9S42.5,44.9,42.5,46.4z"/>
</g>
<g class="st0">
	<path class="st2" d="M51.8,48.2l2.2-5.6l2.2,5.6l1.8-5.2H59l-2.7,7.3l-2.2-5.6l-2.2,5.6L49.1,43H50L51.8,48.2z"/>
</g>
<g class="st0">
	<path class="st2" d="M63.4,42.6l2.5,5.8l2.5-5.8l1.4,7.3h-0.8l-0.9-4.7h0l-2.2,5l-2.2-5h0l-0.9,4.7H62L63.4,42.6z"/>
</g>
<g class="st0">
	<path class="st2" d="M71.6,49.9h-0.8V43h0.8V49.9z"/>
</g>
<g class="st0">
	<path class="st2" d="M74.9,49.9h-0.8v-6.2h-1.7V43h4.1v0.7h-1.7V49.9z"/>
	<path class="st2" d="M82.3,48.2l2.2-5.6l2.2,5.6l1.8-5.2h0.8l-2.7,7.3l-2.2-5.6l-2.2,5.6L79.6,43h0.8L82.3,48.2z"/>
</g>
<g class="st0">
	<path class="st2" d="M90.9,49.9h-0.8V43h0.8V49.9z"/>
</g>
<g class="st0">
	<path class="st2" d="M93.1,49.9h-0.8V43h1c1.3,0,2.5,0.3,2.5,1.9c0,1.1-0.7,1.8-1.7,1.9l2.2,3.1h-0.9l-2.1-3h-0.2V49.9z M93.1,46.2
		h0.2c0.9,0,1.8-0.2,1.8-1.2c0-1.1-0.8-1.3-1.8-1.3h-0.2V46.2z"/>
</g>
<g class="st0">
	<path class="st2" d="M101,43h1l-3.3,3.2l3.4,3.7h-1.1l-2.8-3.2l-0.2,0.2v3h-0.8V43h0.8v3L101,43z"/>
</g>
<g class="st0">
	<path class="st2" d="M103.5,47.1c0,0.5,0,1.1,0.3,1.5c0.3,0.4,0.9,0.7,1.4,0.7c0.5,0,1-0.2,1.4-0.6c0.4-0.4,0.3-1,0.3-1.6V43h0.8
		v4.3c0,0.8-0.1,1.4-0.6,1.9c-0.5,0.5-1.2,0.8-1.9,0.8c-0.7,0-1.3-0.2-1.8-0.7c-0.6-0.6-0.7-1.2-0.7-2V43h0.8V47.1z"/>
</g>
<g class="st0">
	<path class="st2" d="M109.2,42.7l5.4,5.7V43h0.8v7.2l-5.4-5.7v5.3h-0.8V42.7z"/>
</g>
<g class="st0">
	<path class="st2" d="M123.3,46.4c0,0.9-0.1,1.7-0.7,2.4c-0.6,0.7-1.6,1.2-2.6,1.2c-2,0-3.6-1.6-3.6-3.6c0-2,1.6-3.6,3.6-3.6
		c1.2,0,2.2,0.5,2.9,1.5l-0.6,0.5c-0.6-0.8-1.4-1.3-2.4-1.3c-1.6,0-2.8,1.3-2.8,2.9c0,0.7,0.3,1.4,0.8,2c0.5,0.5,1.2,0.9,2,0.9
		c1.2,0,2.5-0.9,2.5-2.2h-2.1v-0.7H123.3z"/>
</g>
<g class="st0">
	<path class="st2" d="M125.3,49.5c0,0.3-0.2,0.5-0.5,0.5s-0.5-0.2-0.5-0.5c0-0.3,0.2-0.5,0.5-0.5S125.3,49.2,125.3,49.5z"/>
</g>
<g class="st0">
	<path class="st1" d="M132.8,44.3c-0.3-0.5-0.6-0.8-1.2-0.8c-0.6,0-1.1,0.4-1.1,1.1c0,0.6,0.6,0.9,1.1,1.1l0.5,0.2
		c0.9,0.4,1.7,0.8,1.7,2c0,1.2-1,2.1-2.2,2.1c-1.1,0-1.9-0.7-2.2-1.8l0.8-0.2c0.1,0.7,0.6,1.3,1.4,1.3s1.4-0.6,1.4-1.4
		c0-0.8-0.6-1.1-1.3-1.4l-0.4-0.2c-0.8-0.4-1.5-0.8-1.5-1.8c0-1.1,0.9-1.8,1.9-1.8c0.8,0,1.4,0.4,1.8,1.1L132.8,44.3z"/>
</g>
<g class="st0">
	<path class="st1" d="M134.8,43h3.6v0.7h-2.8v2.1h2.7v0.7h-2.7v2.7h2.8v0.7h-3.6V43z"/>
</g>
<g class="st0">
	<path class="st1" d="M140.3,49.9h-0.8V43h0.8V49.9z"/>
</g>
<g class="st0">
	<path class="st1" d="M143.6,49.9h-0.8v-6.2h-1.7V43h4.1v0.7h-1.7V49.9z"/>
</g>
<g class="st0">
	<path class="st1" d="M148.6,43.7L149,43h1.5v6.9h-0.8v-6.2H148.6z"/>
</g>
<g class="st0">
	<path class="st1" d="M153.6,49.6l1.6-2.2l0,0c-0.2,0.1-0.4,0.1-0.6,0.1c-1.3,0-2.2-1-2.2-2.3c0-1.3,1.1-2.4,2.4-2.4s2.4,1,2.4,2.4
		c0,0.6-0.3,1.2-0.6,1.7l-2.3,3.1L153.6,49.6z M153.1,45.2c0,0.9,0.7,1.6,1.6,1.6c0.9,0,1.6-0.7,1.6-1.6c0-0.9-0.7-1.6-1.6-1.6
		C153.9,43.6,153.1,44.3,153.1,45.2z"/>
</g>
<g class="st0">
	<path class="st1" d="M162.1,44.8c0,0.6-0.3,1.2-0.8,1.5c0.7,0.3,1,1,1,1.7c0,1.2-0.9,2.1-2.1,2.1S158,49.2,158,48
		c0-0.7,0.4-1.4,1-1.7c-0.5-0.3-0.8-0.9-0.8-1.5c0-1.1,0.9-1.9,1.9-1.9S162.1,43.7,162.1,44.8z M158.8,48c0,0.7,0.6,1.3,1.3,1.3
		c0.8,0,1.3-0.6,1.3-1.3c0-0.7-0.6-1.3-1.3-1.3C159.4,46.6,158.8,47.2,158.8,48z M158.9,44.8c0,0.7,0.5,1.2,1.2,1.2
		c0.7,0,1.2-0.5,1.2-1.2c0-0.7-0.5-1.2-1.2-1.2C159.5,43.6,158.9,44.1,158.9,44.8z"/>
</g>
<g class="st0">
	<path class="st1" d="M163,43.7V43h5.1l-4.7,7.1l-0.6-0.4l3.9-6H163z"/>
</g>
<g class="st0">
	<path class="st1" d="M168.2,49.5c0,0.3-0.2,0.5-0.5,0.5s-0.5-0.2-0.5-0.5c0-0.3,0.2-0.5,0.5-0.5S168.2,49.2,168.2,49.5z"/>
</g>
</svg>
