<?xml version="1.0" encoding="utf-8"?>
<!-- Generator: Adobe Illustrator 25.2.0, SVG Export Plug-In . SVG Version: 6.00 Build 0)  -->
<svg version="1.1" id="Ebene_1" xmlns="http://www.w3.org/2000/svg" xmlns:xlink="http://www.w3.org/1999/xlink" x="0px" y="0px"
	 viewBox="0 0 196 23.7" style="enable-background:new 0 0 196 23.7;" xml:space="preserve">
<style type="text/css">
	.st0{fill:#FFFFFF;}
</style>
<g id="Gruppe_4" transform="translate(-1560.322 -450.372)">
	<g id="Group_164" transform="translate(1560.322 450.372)">
		<rect id="Rectangle_272" x="180.9" class="st0" width="6.4" height="23.7"/>
		<rect id="Rectangle_273" x="172.3" y="8.6" class="st0" width="23.7" height="6.4"/>
		<g id="Gruppe_1" transform="translate(0 3.583)">
			<path id="Pfad_1" class="st0" d="M9,12c0-0.6-0.2-1.1-0.7-1.4C7.6,10.1,6.8,9.8,6,9.6C5,9.3,4.1,8.9,3.2,8.4
				c-1.8-1-2.7-2.3-2.7-4c0-0.8,0.3-1.6,0.8-2.3c0.6-0.7,1.3-1.3,2.1-1.6c1-0.4,2-0.6,3.1-0.6c1,0,2.1,0.2,3.1,0.6
				c0.8,0.4,1.6,1,2.1,1.8C12.1,3.2,12.3,4,12.3,5H9c0-0.7-0.2-1.3-0.7-1.7C7.8,2.8,7.1,2.6,6.4,2.6C5.7,2.6,5,2.8,4.5,3.1
				C4,3.5,3.8,4,3.8,4.5c0,0.6,0.3,1.1,0.8,1.3c0.7,0.4,1.5,0.8,2.3,1C8.4,7.2,9.8,7.9,11,8.9c0.9,0.8,1.3,2,1.3,3.1
				c0,1.3-0.6,2.5-1.6,3.3c-1.2,0.9-2.7,1.3-4.2,1.2c-1.2,0-2.3-0.2-3.4-0.7c-0.9-0.4-1.7-1-2.3-1.9C0.3,13.2,0,12.3,0,11.3h3.3
				c0,1.8,1.1,2.7,3.2,2.7c0.7,0,1.3-0.1,1.9-0.5C8.8,13.1,9,12.6,9,12z"/>
			<path id="Pfad_2" class="st0" d="M27.1,11.6l2.2-11.4h3.3L29,16.2h-3.3L23,5.5l-2.6,10.7h-3.3L13.6,0.2h3.3L19,11.5l2.7-11.4h2.8
				L27.1,11.6z"/>
			<path id="Pfad_3" class="st0" d="M37.8,16.2h-3.3V0.2h3.3L37.8,16.2z"/>
			<path id="Pfad_4" class="st0" d="M49.2,12c0-0.6-0.2-1.1-0.7-1.4c-0.7-0.5-1.5-0.8-2.4-1.1c-0.9-0.3-1.9-0.7-2.7-1.1
				c-1.8-1-2.7-2.3-2.7-4c0-0.8,0.3-1.6,0.8-2.3c0.6-0.7,1.3-1.3,2.1-1.6c1-0.4,2-0.6,3.1-0.6c1,0,2.1,0.2,3.1,0.6
				c0.8,0.4,1.6,1,2.1,1.8C52.3,3.2,52.6,4,52.6,5h-3.3c0-0.7-0.2-1.3-0.7-1.7c-0.5-0.4-1.2-0.7-1.9-0.6c-0.7,0-1.3,0.2-1.9,0.5
				C44.2,3.5,44,4,44,4.5c0,0.6,0.3,1.1,0.8,1.3c0.7,0.4,1.5,0.8,2.3,1c1.5,0.4,2.9,1.1,4.1,2.1c0.9,0.8,1.3,2,1.3,3.1
				c0,1.3-0.6,2.5-1.6,3.3c-1.2,0.9-2.7,1.3-4.2,1.2c-1.2,0-2.3-0.2-3.4-0.7c-0.9-0.4-1.7-1-2.3-1.9c-0.5-0.8-0.8-1.8-0.8-2.7h3.3
				c0,1.8,1.1,2.7,3.2,2.7c0.7,0,1.3-0.1,1.9-0.5C49,13.1,49.2,12.6,49.2,12z"/>
			<path id="Pfad_5" class="st0" d="M63.1,12c0-0.6-0.2-1.1-0.7-1.4c-0.7-0.5-1.5-0.8-2.4-1.1c-0.9-0.3-1.9-0.7-2.7-1.1
				c-1.8-1-2.7-2.3-2.7-4c0-0.8,0.3-1.6,0.8-2.3c0.6-0.7,1.3-1.3,2.1-1.6c1-0.4,2-0.6,3.1-0.6c1,0,2.1,0.2,3.1,0.6
				c0.8,0.4,1.6,1,2.1,1.8C66.1,3.2,66.4,4,66.4,5h-3.3c0-0.7-0.2-1.3-0.7-1.7c-0.5-0.4-1.2-0.7-1.9-0.6c-0.7,0-1.3,0.2-1.9,0.5
				c-0.4,0.3-0.7,0.8-0.7,1.4c0,0.6,0.3,1.1,0.8,1.3c0.7,0.4,1.5,0.8,2.3,1c1.5,0.4,2.9,1.1,4.1,2.1c0.9,0.8,1.3,2,1.3,3.1
				c0,1.3-0.6,2.5-1.6,3.3c-1.2,0.9-2.7,1.3-4.2,1.2c-1.2,0-2.3-0.2-3.4-0.7c-0.9-0.4-1.7-1-2.3-1.9c-0.5-0.8-0.8-1.8-0.8-2.7h3.3
				c0,1.8,1.1,2.7,3.2,2.7c0.7,0,1.3-0.1,1.9-0.5C62.8,13.1,63.1,12.6,63.1,12z"/>
		</g>
		<g id="Gruppe_2" transform="translate(70.646 3.45)">
			<g id="Pfad_6">
				<g>
					<g>
						<path class="st0" d="M11.9,9.2c0,1.3-0.3,2.7-0.8,3.8c-0.5,1.1-1.4,2-2.5,2.5l2.9,2.8L11,18.8l-3.1-3c-0.6,0.2-1.3,0.3-2,0.3
							c-1.6,0.1-3.2-0.6-4.3-1.9C0.5,12.8-0.1,11,0,9.2V6.9c0-1.2,0.2-2.5,0.7-3.6C1.6,1.2,3.6-0.1,5.9,0C7,0,8.1,0.3,9,0.8
							c0.9,0.6,1.6,1.4,2.1,2.4c0.5,1.1,0.8,2.3,0.8,3.6L11.9,9.2L11.9,9.2z M11.2,6.9c0.1-1.6-0.4-3.3-1.5-4.6
							C7.8,0.2,4.5,0,2.4,1.9C2.2,2.1,2.1,2.2,2,2.3c-1,1.3-1.5,3-1.5,4.6v2.3c0,1.1,0.2,2.3,0.7,3.3c0.4,0.9,1,1.7,1.9,2.2
							c0.8,0.5,1.8,0.8,2.8,0.8c1.5,0.1,2.9-0.6,3.9-1.7c1-1.3,1.5-3,1.4-4.7L11.2,6.9L11.2,6.9z"/>
						<path class="st0" d="M11,19.5l-3.2-3.1c-0.6,0.2-1.2,0.2-1.9,0.2c-1.8,0.1-3.5-0.7-4.7-2.1C0,13-0.6,11.1-0.5,9.1l0-2.2
							c0-1.3,0.2-2.6,0.7-3.8c1-2.3,3.2-3.7,5.7-3.6c1.2,0,2.3,0.3,3.3,0.9c1,0.7,1.8,1.6,2.3,2.7c0.5,1.2,0.8,2.5,0.8,3.8l0,2.4
							c0,1.4-0.3,2.8-0.9,4.1c-0.5,1-1.2,1.8-2.1,2.4l2.8,2.7L11,19.5z M5.9,15.1c1.4,0.1,2.7-0.5,3.5-1.5c0.9-1.2,1.4-2.8,1.3-4.3
							l0-2.8l0.1,0c0-1.4-0.5-2.7-1.4-3.8c-0.8-0.9-2-1.5-3.3-1.5C4.8,1,3.6,1.5,2.7,2.3C2.6,2.4,2.5,2.5,2.4,2.6
							C1.4,3.8,0.9,5.4,1,6.9l0,2.3c0,1.1,0.2,2.1,0.6,3.1c0.4,0.8,0.9,1.5,1.7,2C4.1,14.8,5,15.1,5.9,15.1z"/>
					</g>
				</g>
			</g>
			<g id="Pfad_7">
				<g>
					<g>
						<path class="st0" d="M26,0.2v10.7c0.1,1.4-0.4,2.9-1.5,3.9c-2.3,1.9-5.6,1.9-7.9,0c-1-1-1.5-2.4-1.5-3.8V0.2h0.6v10.6
							c-0.1,1.3,0.4,2.5,1.3,3.5c2,1.7,5,1.7,7,0c0.9-0.9,1.4-2.2,1.3-3.5V0.2H26z"/>
						<path class="st0" d="M20.6,16.7c-1.5,0-3-0.5-4.2-1.5c-1.1-1.2-1.7-2.7-1.6-4.3l0-11.2h1.6v11.1c-0.1,1.2,0.4,2.3,1.2,3.1
							c1.8,1.5,4.5,1.5,6.3,0c0.8-0.8,1.2-1.9,1.2-3l0-11.1h1.6v11.2c0.1,1.6-0.5,3.1-1.6,4.2C23.6,16.2,22.1,16.7,20.6,16.7z"/>
					</g>
				</g>
			</g>
			<g id="Pfad_8">
				<g>
					<g>
						<path class="st0" d="M38.2,11.2h-7.7l-1.8,4.7h-0.6L34,0.2h0.7l5.9,15.7H40L38.2,11.2z M30.7,10.7H38l-3.6-9.7L30.7,10.7z"/>
						<path class="st0" d="M41.3,16.4h-1.7l-1.8-4.7h-7l-1.8,4.7h-1.7l6.3-16.7h0.6l0.1,0l0.1,0h0.6L41.3,16.4z M31.5,10.2h5.8
							l-2.9-7.8L31.5,10.2z"/>
					</g>
				</g>
			</g>
			<g id="Pfad_9">
				<g>
					<g>
						<path class="st0" d="M43.7,15.3h8.1v0.6h-8.7V0.2h0.6L43.7,15.3L43.7,15.3z"/>
						<polygon class="st0" points="52.3,16.4 42.6,16.4 42.6,-0.3 44.2,-0.3 44.2,14.8 52.3,14.8 						"/>
					</g>
				</g>
			</g>
			<g id="Pfad_10">
				<g>
					<g>
						<path class="st0" d="M55.6,15.9H55V0.2h0.6V15.9z"/>
						<rect x="54.5" y="-0.3" class="st0" width="1.6" height="16.7"/>
					</g>
				</g>
			</g>
			<g id="Pfad_11">
				<g>
					<g>
						<path class="st0" d="M70.8,0.8h-5.7v15.1h-0.6V0.8h-5.7V0.2h12L70.8,0.8L70.8,0.8z"/>
						<polygon class="st0" points="65.6,16.4 64,16.4 64,1.3 58.3,1.3 58.3,-0.3 71.3,-0.3 71.3,1.2 70.8,1.3 65.6,1.3 						"/>
					</g>
				</g>
			</g>
			<g id="Pfad_12">
				<g>
					<g>
						<path class="st0" d="M78.1,9.4l5.5-9.2h0.7L78.4,10v6h-0.6v-6l-5.9-9.7h0.8L78.1,9.4z"/>
						<polygon class="st0" points="78.9,16.4 77.4,16.4 77.4,10.1 71,-0.3 73,-0.3 78.1,8.4 83.4,-0.3 85.2,-0.3 78.9,10.1 						
							"/>
					</g>
				</g>
			</g>
		</g>
	</g>
</g>
</svg>
