<?xml version="1.0" encoding="utf-8"?>
<!-- Generator: Adobe Illustrator 23.0.3, SVG Export Plug-In . SVG Version: 6.00 Build 0)  -->
<svg version="1.1" id="Ebene_1" xmlns="http://www.w3.org/2000/svg" xmlns:xlink="http://www.w3.org/1999/xlink" x="0px" y="0px"
	 viewBox="0 0 419.7 69.6" style="enable-background:new 0 0 419.7 69.6;" xml:space="preserve">
<style type="text/css">
	.st0{fill:#FFFFFF;}
	.st1{enable-background:new    ;}
</style>
<g id="Group_164" transform="translate(-691 -2943.362)">
	<rect id="Rectangle_272" x="1076.6" y="2943.4" class="st0" width="14.5" height="53.6"/>
	<rect id="Rectangle_273" x="1057" y="2962.9" class="st0" width="53.6" height="14.5"/>
	<g class="st1">
		<path class="st0" d="M713,2989.5c0-1.4-0.5-2.5-1.5-3.2c-1-0.8-2.8-1.6-5.4-2.4c-2.6-0.8-4.6-1.7-6.2-2.5c-4.1-2.2-6.2-5.2-6.2-9
			c0-2,0.6-3.7,1.7-5.2c1.1-1.5,2.7-2.7,4.8-3.6c2.1-0.9,4.4-1.3,7-1.3c2.6,0,4.9,0.5,6.9,1.4c2,0.9,3.6,2.3,4.7,4
			c1.1,1.7,1.7,3.7,1.7,5.8h-7.5c0-1.7-0.5-3-1.6-3.9c-1-0.9-2.5-1.4-4.4-1.4c-1.8,0-3.2,0.4-4.3,1.2c-1,0.8-1.5,1.8-1.5,3.1
			c0,1.2,0.6,2.2,1.8,3s2.9,1.5,5.2,2.2c4.2,1.3,7.3,2.9,9.3,4.8s2.9,4.2,2.9,7.1c0,3.1-1.2,5.6-3.6,7.4c-2.4,1.8-5.6,2.7-9.6,2.7
			c-2.8,0-5.3-0.5-7.6-1.5c-2.3-1-4-2.4-5.2-4.2s-1.8-3.8-1.8-6.2h7.5c0,4,2.4,6,7.2,6c1.8,0,3.2-0.4,4.2-1.1
			C712.5,2991.8,713,2990.8,713,2989.5z"/>
		<path class="st0" d="M753.8,2988.5l4.9-25.8h7.4l-8,36.3h-7.5l-5.9-24.3l-5.9,24.3h-7.5l-8-36.3h7.4l4.9,25.7l6-25.7h6.3
			L753.8,2988.5z"/>
		<path class="st0" d="M778.1,2999h-7.5v-36.3h7.5V2999z"/>
		<path class="st0" d="M803.9,2989.5c0-1.4-0.5-2.5-1.5-3.2c-1-0.8-2.8-1.6-5.4-2.4c-2.6-0.8-4.6-1.7-6.2-2.5
			c-4.1-2.2-6.2-5.2-6.2-9c0-2,0.6-3.7,1.7-5.2c1.1-1.5,2.7-2.7,4.8-3.6c2.1-0.9,4.4-1.3,7-1.3c2.6,0,4.9,0.5,6.9,1.4
			c2,0.9,3.6,2.3,4.7,4c1.1,1.7,1.7,3.7,1.7,5.8h-7.5c0-1.7-0.5-3-1.6-3.9c-1-0.9-2.5-1.4-4.4-1.4c-1.8,0-3.2,0.4-4.3,1.2
			c-1,0.8-1.5,1.8-1.5,3.1c0,1.2,0.6,2.2,1.8,3s2.9,1.5,5.2,2.2c4.2,1.3,7.3,2.9,9.3,4.8s2.9,4.2,2.9,7.1c0,3.1-1.2,5.6-3.6,7.4
			c-2.4,1.8-5.6,2.7-9.6,2.7c-2.8,0-5.3-0.5-7.6-1.5c-2.3-1-4-2.4-5.2-4.2s-1.8-3.8-1.8-6.2h7.5c0,4,2.4,6,7.2,6
			c1.8,0,3.2-0.4,4.2-1.1C803.4,2991.8,803.9,2990.8,803.9,2989.5z"/>
		<path class="st0" d="M835.2,2989.5c0-1.4-0.5-2.5-1.5-3.2c-1-0.8-2.8-1.6-5.4-2.4c-2.6-0.8-4.6-1.7-6.2-2.5
			c-4.1-2.2-6.2-5.2-6.2-9c0-2,0.6-3.7,1.7-5.2c1.1-1.5,2.7-2.7,4.8-3.6c2.1-0.9,4.4-1.3,7-1.3c2.6,0,4.9,0.5,6.9,1.4
			c2,0.9,3.6,2.3,4.7,4c1.1,1.7,1.7,3.7,1.7,5.8h-7.5c0-1.7-0.5-3-1.6-3.9c-1-0.9-2.5-1.4-4.4-1.4c-1.8,0-3.2,0.4-4.3,1.2
			c-1,0.8-1.5,1.8-1.5,3.1c0,1.2,0.6,2.2,1.8,3s2.9,1.5,5.2,2.2c4.2,1.3,7.3,2.9,9.3,4.8s2.9,4.2,2.9,7.1c0,3.1-1.2,5.6-3.6,7.4
			c-2.4,1.8-5.6,2.7-9.6,2.7c-2.8,0-5.3-0.5-7.6-1.5c-2.3-1-4-2.4-5.2-4.2s-1.8-3.8-1.8-6.2h7.5c0,4,2.4,6,7.2,6
			c1.8,0,3.2-0.4,4.2-1.1C834.7,2991.8,835.2,2990.8,835.2,2989.5z"/>
	</g>
	<g class="st1">
		<path class="st0" d="M879.1,2982.9c0,3.3-0.6,6.2-1.9,8.7c-1.3,2.5-3.1,4.4-5.6,5.6l6.5,6.4l-1,0.9l-6.9-6.7
			c-1.5,0.5-3,0.7-4.5,0.7c-4,0-7.2-1.4-9.7-4.3c-2.5-2.8-3.7-6.7-3.7-11.5v-5.1c0-3.1,0.5-5.8,1.6-8.2c1.1-2.4,2.7-4.2,4.7-5.5
			c2-1.3,4.4-1.9,7-1.9c2.7,0,5,0.6,7,1.9c2,1.3,3.6,3.1,4.7,5.5c1.1,2.4,1.7,5.1,1.7,8.1V2982.9z M877.7,2977.5
			c0-4.3-1.1-7.7-3.3-10.3c-2.2-2.6-5.1-3.9-8.8-3.9c-3.7,0-6.6,1.3-8.8,3.9c-2.2,2.6-3.3,6.1-3.3,10.5v5.2c0,2.8,0.5,5.3,1.5,7.5
			c1,2.2,2.4,3.8,4.2,5c1.8,1.2,4,1.8,6.4,1.8c3.7,0,6.6-1.3,8.8-3.9c2.2-2.6,3.2-6.1,3.2-10.6V2977.5z"/>
		<path class="st0" d="M911.1,2962.5v24.1c0,3.8-1.1,6.7-3.3,8.8c-2.2,2.1-5.1,3.2-8.9,3.2s-6.7-1.1-8.9-3.2c-2.2-2.1-3.3-5-3.3-8.7
			v-24.2h1.3v24c0,3.3,1,5.9,3,7.8c2,1.9,4.6,2.9,7.9,2.9s5.9-1,7.9-2.9c2-1.9,3-4.5,3-7.8v-24H911.1z"/>
		<path class="st0" d="M938.7,2987.4h-17.4l-4,10.6h-1.4l13.3-35.5h1.6l13.3,35.5h-1.4L938.7,2987.4z M921.8,2986.1h16.4l-8.2-22
			L921.8,2986.1z"/>
		<path class="st0" d="M951.2,2996.7h18.2v1.3h-19.6v-35.5h1.3V2996.7z"/>
		<path class="st0" d="M977.9,2998h-1.3v-35.5h1.3V2998z"/>
		<path class="st0" d="M1012.3,2963.8h-12.9v34.2h-1.3v-34.2h-12.9v-1.3h27.2V2963.8z"/>
		<path class="st0" d="M1028.9,2983.3l12.5-20.8h1.6l-13.4,22v13.5h-1.3v-13.5l-13.4-22h1.8L1028.9,2983.3z"/>
	</g>
</g>
</svg>
