<?xml version="1.0" encoding="utf-8"?>
<!-- Generator: Adobe Illustrator 23.0.3, SVG Export Plug-In . SVG Version: 6.00 Build 0)  -->
<svg version="1.1" id="Layer_1" xmlns="http://www.w3.org/2000/svg" xmlns:xlink="http://www.w3.org/1999/xlink" x="0px" y="0px"
	 viewBox="0 0 96.9 96.6" style="enable-background:new 0 0 96.9 96.6;" xml:space="preserve">
<style type="text/css">
	.st0{fill:#E30613;}
</style>
<g>
	<path class="st0" d="M5.6,12.3c0,0-3.7,1.5-4.5,3.8c0,0-0.6,1.2,0.8,0.8c1.4-0.4,2.4-1.4,4.7-1.2c0,0,1.7-2.1,1.7-2.5
		C8.2,12.7,7.1,12.4,5.6,12.3z"/>
	<circle class="st0" cx="15.5" cy="9.4" r="0.8"/>
	<path class="st0" d="M95.9,89c-2.3-4.9-5.2-6.2-5.2-6.2s-5.5,1-15.6-3.2c0,0,14.3,10.7,15.6,11C92.1,90.9,98.2,93.8,95.9,89z"/>
	<path class="st0" d="M41,90.9c-1.1-0.8-0.5-1.3-2.6-1.5c-1-0.1-1.8-0.1-2.4-0.1c2-2.3,5.1-5.5,5.1-5.5l0,0c0,0,7.1-5.2,6.8-10.4
		l4.5-2.6c0,0-24.3-7.8-25.6-26c0,0,2.3,7.5,11,14.7c2.3,0.6,7,1.6,9.1,0.5c0,0,2.8,0.4,6.9-3.7c0,0,4.5-2.8,5-4.5
		c0.4-1.7,0.4-2.8,0.4-2.8s3.2-0.6,3.7-1.5c0.2-0.5,0.7-1.5,1.1-2.4c-6.4-7.6-14.5-15.3-19.3-17.8c-8.4-4.2-13,3.6-14.6,5.2
		c-0.7,0.7-1.6,1.8-2.4,2.8c-1.2,1.5-3,2.3-4.8,2.1L22,37.3c0,0,3.2-0.6,5.2-4.2s7.1-7.8,7.1-7.8c3-1.7,6.9-1.1,6.9-1.1
		s-7.1-4.4-9.3-9.4C29.8,9.9,25.7,0,18.1,0.6s-9.9,8-9.9,8c-1.1,1.5-1.7,2.8-1.7,2.8S9.3,11,10,12.7c0.2,0.6-1.9,2.8-1.9,2.8
		c3.7-0.6,6.3,2.8,6.3,2.8s2.2,1,4.6,11.3c0,0,0.8,7.2,0,12c-1.1,6,3.3,17.4,10.7,22.2c8.3,5.4,7.4,5.7,7.4,5.7s2.8,5.2,1.9,8.4
		c-1,3.6-1,3.6-1,3.6s-6,7.3-6.5,7.6c-0.5,0.3-4.5,1.5-5.4,1.5c-0.8,0-3.6-0.4-4.4,0c-1.3,0.7-1.6,2.3-1.6,2.3l1.7-1.1
		c0,0,3.2,1.2,5.3,1.1c0,0,2.1-1.8,3.7-1.8c0,0-2.6,1.6-3.1,2.9s0.5,2.6,0.5,2.6s0.2-1.6,1-1.9c0.7-0.3,3.5-1.4,4.7-2.4
		c3.5,0,3.1,0,3.9,0c0.5,0,2.6-0.8,3.2,0.3c0.6,1.1,0.6,1,0.6,1S42.1,91.7,41,90.9z M15.5,11.3c-1,0-1.9-0.8-1.9-1.9
		s0.8-1.9,1.9-1.9c1,0,1.9,0.8,1.9,1.9S16.6,11.3,15.5,11.3z"/>
	<path class="st0" d="M52.8,86.2c-2.4-0.2-3.6-1.5-4.9-1.6c-1.3-0.2,0.8-1.6,0.8-1.6s2.1-1.9,3.2-4.7c1.1-2.8,0.2-5.4,0.2-5.4
		l-2.8,1.5c0,0,1,2.3-1.1,5.5c0,0-2.3,3.1-4.1,3.7l-0.4,0.8c-0.8,1.1-2,1.7-3.4,1.7l-1.8,2.1c0,0,5,1,7.3-0.6c0,0,2.1-0.3,2.8,0
		c0.6,0.3,0.6,1.3,3.1,1.5c2.4,0.2,2.4-1.3,4.1-0.6C55.7,88.3,55.2,86.4,52.8,86.2z"/>
	<path class="st0" d="M64.5,65c0,0,10.7,2.3,8.8-5.5c-0.7-2.8-3.6-7.3-7.3-12c-0.8,1.2-2.4,3-5,2.8c0,0,1.5,3.7-6.1,8
		c0,0-2.9,3.6-7.5,4c0,0-2.4,0.6-5.1,0.4c4.5,2.8,10.1,5.4,17.3,7.1C59.6,69.8,64.2,69.2,64.5,65z"/>
	<path class="st0" d="M86,80L69,69.2c4.9,2.3,17.5,9.3,21.2,11.4c4.7,0.5,8.6,0.3,3.2-3.9c-5.3-4.1-17.8-16.5-17.8-16.5
		c0.6,9.1-9.1,7.1-9.1,7.1c0,2.3-4.2,3.9-4.2,3.9s16.5,8.1,20.4,8.4C83.4,79.6,84.6,79.8,86,80z"/>
</g>
</svg>
