<?xml version="1.0" encoding="utf-8"?>
<!-- Generator: Adobe Illustrator 23.0.3, SVG Export Plug-In . SVG Version: 6.00 Build 0)  -->
<svg version="1.1"
	 id="Layer_1" xmlns:cc="http://creativecommons.org/ns#" xmlns:dc="http://purl.org/dc/elements/1.1/" xmlns:inkscape="http://www.inkscape.org/namespaces/inkscape" xmlns:rdf="http://www.w3.org/1999/02/22-rdf-syntax-ns#" xmlns:sodipodi="http://sodipodi.sourceforge.net/DTD/sodipodi-0.dtd" xmlns:svg="http://www.w3.org/2000/svg"
	 xmlns="http://www.w3.org/2000/svg" xmlns:xlink="http://www.w3.org/1999/xlink" x="0px" y="0px" viewBox="0 0 100 100"
	 style="enable-background:new 0 0 100 100;" xml:space="preserve">
<style type="text/css">
	.st0{fill:#FFFFFF;}
</style>
<g transform="translate(0,-952.36218)">
	<path class="st0" d="M21.8,963.2l-6,6c-7.8,7.8-7.8,20.5,0,28.2l29,29c1.2,1.2,3.1,1.2,4.2,0s1.2-3.1,0-4.2l-29-29
		c-5.5-5.5-5.5-14.2,0-19.8l3.8-3.8l12.9,13.5l-4.5,4.5c0,0,0,0,0,0c-1.2,1.2-1.2,3.1,0,4.2l28.1,28.1c0,0,0,0,0,0
		c1.2,1.2,3.1,1.2,4.2,0l4.5-4.5l13.5,12.9l-3.8,3.8c-5.5,5.5-14.2,5.5-19.8,0l-2.1-2.1c-0.1-0.2-0.3-0.3-0.5-0.5
		c-1.3-1-3.2-0.8-4.2,0.5c-1,1.3-0.8,3.2,0.5,4.2l2.1,2.1c7.8,7.8,20.5,7.8,28.2,0l6-6c0,0,0,0,0,0c1.1-1.2,1.1-3.1-0.1-4.2
		l-17.9-17.1c-1.2-1.1-3-1.1-4.2,0l-4.5,4.5l-23.8-23.8l4.5-4.5c1.1-1.2,1.2-3,0-4.2l-17.1-17.9c-0.6-0.6-1.3-0.9-2.1-0.9
		C23.2,962.4,22.4,962.7,21.8,963.2z"/>
</g>
</svg>
