<?xml version="1.0" encoding="utf-8"?>
<!-- Generator: Adobe Illustrator 23.0.3, SVG Export Plug-In . SVG Version: 6.00 Build 0)  -->
<svg version="1.1" xmlns="http://www.w3.org/2000/svg" xmlns:xlink="http://www.w3.org/1999/xlink" x="0px" y="0px"
	 viewBox="0 0 95.2 54.7" style="enable-background:new 0 0 95.2 54.7;" xml:space="preserve">
<style type="text/css">
	.st0{fill:#FFFFFF;}
</style>
<g id="Layer_2">
</g>
<g id="Layer_1">
	<g>
		<path class="st0" d="M91.6,28.1l-10.3-1.4l-5.9-10.3c-1.6-2.8-4.6-4.5-7.8-4.5H56.3c-1.1,0-2,0.9-2,2v20.5c0,1.1-0.9,2-2,2H2
			c-1.1,0-2,0.9-2,2v6.1c0,1.1,0.9,2,2,2h4.5c0.4,4.6,4.2,8.2,8.9,8.2s8.5-3.6,8.9-8.2h46.4c0.4,4.6,4.2,8.2,8.9,8.2
			c4.7,0,8.5-3.6,8.9-8.2h2.7c2.2,0,4-1.8,4-4V32.1C95,30.1,93.5,28.4,91.6,28.1z M15.4,50.4c-2.6,0-4.7-2.1-4.7-4.7
			s2.1-4.7,4.7-4.7s4.7,2.1,4.7,4.7S17.9,50.4,15.4,50.4z M60.7,26.5v-9h6.8c1.2,0,2.3,0.7,2.9,1.7l4.2,7.3H60.7z M79.4,50.4
			c-2.6,0-4.7-2.1-4.7-4.7s2.1-4.7,4.7-4.7s4.7,2.1,4.7,4.7S82,50.4,79.4,50.4z"/>
		<path class="st0" d="M2,33.6h47.5c1.1,0,2-0.9,2-2V2c0-1.1-0.9-2-2-2H2C0.9,0,0,0.9,0,2v29.6C0,32.7,0.9,33.6,2,33.6z"/>
	</g>
</g>
</svg>
