<?xml version="1.0" encoding="utf-8"?>
<!-- Generator: Adobe Illustrator 23.0.3, SVG Export Plug-In . SVG Version: 6.00 Build 0)  -->
<svg version="1.1" id="Layer_1" xmlns="http://www.w3.org/2000/svg" xmlns:xlink="http://www.w3.org/1999/xlink" x="0px" y="0px"
	 viewBox="0 0 100 100.6" style="enable-background:new 0 0 100 100.6;" xml:space="preserve">
<style type="text/css">
	.st0{fill:#E30613;}
</style>
<g>
	<path class="st0" d="M92.1,70.9c-3.7-4.5-13.1-16.3-21-26.2l1-0.6c0.3-0.1,1.8-1.1,2.9-4.4c1-2.8,3-9.1,3.2-10
		c0.1-0.3,0.8-1.4,2.2-1.4c0.7,0,1.2-0.5,1.2-1.2c0-0.7-0.5-1.2-1.2-1.2c-3,0-4.3,2.7-4.4,2.8c0,0,0,0.1-0.1,0.1c0,0.1-2.2,7-3.2,10
		C72,41.3,71,42,71,42l-1.3,0.8c-3.1-4-5.9-7.5-7.9-10l4.9-5.3c0.4-0.4,1.8-1.8,1.8-5.1c0-2.8,0-11,0-11.1c0.1-0.1,0.4-0.8,2-2
		c0.5-0.4,0.7-1.1,0.3-1.6c-0.4-0.5-1.1-0.7-1.6-0.3c-2.7,1.9-3.1,3.3-3,4c0,0.8-0.1,8.4,0,11.1c0,2.5-0.9,3.2-0.9,3.3
		c-0.1,0-0.1,0.1-0.2,0.2L60.4,31c-0.1-0.1-0.1-0.2-0.2-0.3c-0.3-0.5-0.7-1-1.1-1.4c-0.1-0.1-0.1-0.2-0.1-0.2v0
		c-1.2-1.3-2.7-2.3-4.3-2.9c0.6-0.2,1.2-0.5,1.6-0.8c1.7-0.4,3-1.9,3-3.7c0-2.1-1.7-3.7-3.7-3.7c-0.1,0-0.3,0-0.4,0
		c0-0.1,0-0.1,0-0.2c0-1.5-1.1-2.8-2.7-3.5c6.5-3.8,10.2-9.6,11.1-11.2l2-0.8c0.6-0.2,0.9-0.9,0.6-1.5C65.7,0.3,65,0,64.4,0.2
		l-2.4,1c-0.3,0.1-0.5,0.3-0.6,0.5c0,0.1-4,7.4-11.7,11.3C42.1,9.2,38.1,1.8,38.1,1.7c-0.1-0.2-0.3-0.4-0.6-0.5l-2.4-1
		c-0.6-0.2-1.3,0-1.5,0.6c-0.2,0.6,0,1.3,0.6,1.5l2,0.8c0.9,1.6,4.6,7.4,11.1,11.2c-1.6,0.7-2.7,2-2.7,3.5c0,0.1,0,0.1,0,0.2
		c-0.1,0-0.3,0-0.4,0c-2.1,0-3.7,1.7-3.7,3.7c0,1.8,1.3,3.3,3,3.7c0.4,0.3,0.9,0.6,1.6,0.8c-2.4,1-4.4,2.7-5.7,4.8l-4.8-5.1
		c0,0-0.1-0.1-0.1-0.1c0,0-1-0.8-0.9-3.3c0-2.7,0-10.3,0-11.1c0.1-0.7-0.3-2.1-3-4C29.8,7,29,7.1,28.7,7.6c-0.4,0.5-0.3,1.3,0.3,1.6
		c1.7,1.2,2,1.9,2,2c0,0.1,0.1,8.4,0,11.1c0,3.3,1.3,4.7,1.8,5.1l5.2,5.6c-2,2.5-4.7,6-7.8,9.9l-1.7-1c0,0-1-0.6-1.8-3.1
		c-1-3-3.2-9.9-3.2-10c0,0,0-0.1-0.1-0.1c-0.1-0.1-1.3-2.8-4.4-2.8c-0.7,0-1.2,0.5-1.2,1.2c0,0.7,0.5,1.2,1.2,1.2
		c1.4,0,2.1,1.1,2.2,1.4c0.3,0.8,2.3,7.1,3.2,10c1.1,3.3,2.6,4.3,2.8,4.4l1.4,0.9c-7.8,9.9-17.1,21.6-20.8,26
		C1,79.2-1.6,86.8,3.7,89.7c6.5,3.6,16.3-17,16.3-17l2.2-4.1c0,0.6,0,1.2,0,1.9c0.5,4.8,1,8.8,1,8.9c0,0,0.2,1.6-2.1,4.1
		c-2.6,3-11.9,11.2-12,11.3c-0.2,0.2-2,1.7-2,3.9c0,0.7,0.5,1.2,1.2,1.2c0.7,0,1.2-0.5,1.2-1.2c0-0.9,0.8-1.8,1.1-2.1
		c0.4-0.3,9.5-8.4,12.2-11.5c3-3.4,2.7-5.8,2.6-6c0,0-0.5-4.1-1-8.8c-0.4-3.6,1.3-4,1.4-4L38,63c0,0.3,0,0.7,0,1
		c0,8.7,5.3,24.1,11.8,24.1c6.5,0,11.8-15.4,11.8-24.1c0-0.3,0-0.7,0-1l12,3.2c0,0,1.7,0.4,1.3,4c-0.5,4.7-1,8.8-1,8.8
		c-0.1,0.3-0.4,2.7,2.6,6.1c2.7,3.1,11.8,11.2,12.2,11.6c0,0,1.1,1,1.1,2.1c0,0.7,0.5,1.2,1.2,1.2c0.7,0,1.2-0.5,1.2-1.2
		c0-2.2-1.8-3.7-1.9-3.9c-0.1-0.1-9.3-8.3-12-11.3c-2.2-2.5-2.1-4.1-2.1-4.2c0,0,0.5-4.1,1-8.9c0.1-1.3,0.1-2.3-0.1-3.1l2.9,5.4
		c0,0,9.7,20.6,16.3,17C101.6,86.8,99,79.2,92.1,70.9z M37.8,40.1c0.6,2.3,2,4.4,3.8,6c-0.8,0.6-1.2,1.4-1.2,2.1
		c0,0.6,0.2,1.1,0.7,1.6l-6.4-4L37.8,40.1z M25.6,63.9c0,0-0.4,0.1-0.9,0.4l8.9-16.3l7.9,5c-1.5,2.1-2.7,4.7-3.2,7.6L25.6,63.9z
		 M61.9,39.5l3.3,6.1l-6.7,4.2c0.4-0.5,0.7-1,0.7-1.6c0-0.8-0.4-1.5-1.2-2.1C60,44.4,61.4,42.1,61.9,39.5z M74,63.9l-12.8-3.4
		c-0.5-2.9-1.6-5.5-3.2-7.6l8.3-5.2l9.3,17.1C74.9,64.1,74.1,63.9,74,63.9z"/>
</g>
</svg>
